<?xml version="1.0" encoding="UTF-8"?>
<svg xmlns="http://www.w3.org/2000/svg" version="1.1" width="100" height="100" viewBox="0 0 100 100"><rect x="0" y="0" width="100" height="100" fill="#ffffff"/><g transform="scale(4)"><g transform="translate(0,0)"><path fill-rule="evenodd" d="M9 0L9 1L11 1L11 2L9 2L9 3L8 3L8 5L9 5L9 6L8 6L8 7L9 7L9 9L8 9L8 8L5 8L5 11L4 11L4 12L5 12L5 13L3 13L3 12L2 12L2 14L4 14L4 15L2 15L2 17L3 17L3 16L5 16L5 17L8 17L8 20L9 20L9 22L10 22L10 23L11 23L11 21L12 21L12 22L13 22L13 23L12 23L12 24L9 24L9 23L8 23L8 25L14 25L14 23L15 23L15 22L16 22L16 25L17 25L17 22L19 22L19 21L21 21L21 22L24 22L24 25L25 25L25 20L24 20L24 21L23 21L23 20L22 20L22 19L23 19L23 17L24 17L24 19L25 19L25 14L24 14L24 13L25 13L25 10L23 10L23 9L22 9L22 8L20 8L20 9L19 9L19 11L18 11L18 10L16 10L16 9L15 9L15 8L14 8L14 7L15 7L15 5L14 5L14 4L16 4L16 7L17 7L17 2L16 2L16 3L14 3L14 4L12 4L12 2L13 2L13 1L14 1L14 2L15 2L15 1L14 1L14 0L13 0L13 1L12 1L12 0ZM9 3L9 5L10 5L10 3ZM11 4L11 7L10 7L10 6L9 6L9 7L10 7L10 8L11 8L11 10L10 10L10 9L9 9L9 10L8 10L8 9L6 9L6 10L8 10L8 11L6 11L6 12L8 12L8 11L9 11L9 12L10 12L10 11L11 11L11 10L13 10L13 11L12 11L12 12L11 12L11 15L10 15L10 14L8 14L8 13L6 13L6 14L8 14L8 15L5 15L5 16L9 16L9 18L10 18L10 19L9 19L9 20L10 20L10 21L11 21L11 19L12 19L12 21L14 21L14 22L15 22L15 20L16 20L16 17L14 17L14 16L13 16L13 17L12 17L12 15L13 15L13 14L12 14L12 13L13 13L13 12L14 12L14 11L15 11L15 10L14 10L14 8L13 8L13 9L12 9L12 6L13 6L13 7L14 7L14 6L13 6L13 5L12 5L12 4ZM0 8L0 10L3 10L3 9L2 9L2 8ZM21 9L21 10L20 10L20 12L19 12L19 13L18 13L18 11L16 11L16 13L17 13L17 14L16 14L16 15L15 15L15 16L16 16L16 15L17 15L17 16L18 16L18 15L19 15L19 16L20 16L20 15L23 15L23 16L24 16L24 15L23 15L23 14L22 14L22 13L24 13L24 12L23 12L23 11L22 11L22 9ZM9 10L9 11L10 11L10 10ZM21 11L21 13L22 13L22 11ZM0 12L0 17L1 17L1 12ZM19 13L19 14L20 14L20 13ZM17 14L17 15L18 15L18 14ZM9 15L9 16L10 16L10 17L11 17L11 16L10 16L10 15ZM17 17L17 20L20 20L20 17ZM12 18L12 19L14 19L14 20L15 20L15 18ZM18 18L18 19L19 19L19 18ZM21 18L21 19L22 19L22 18ZM21 20L21 21L22 21L22 20ZM18 23L18 25L21 25L21 24L22 24L22 23ZM0 0L0 7L7 7L7 0ZM1 1L1 6L6 6L6 1ZM2 2L2 5L5 5L5 2ZM18 0L18 7L25 7L25 0ZM19 1L19 6L24 6L24 1ZM20 2L20 5L23 5L23 2ZM0 18L0 25L7 25L7 18ZM1 19L1 24L6 24L6 19ZM2 20L2 23L5 23L5 20Z" fill="#000000"/></g></g></svg>
